<svg id="Layer_1" data-name="Layer 1" xmlns="http://www.w3.org/2000/svg" viewBox="0 0 18.41 35.01">
<defs>
<style>.cls-1{fill:#fff;}</style>
</defs>
<path class="cls-1" d="M-40.4,51.5c.93,0,1.88,0,2.81.1.61,0,1.22.11,1.79.17l0,5.64h-2.31c-.46,0-.92,0-1.39,0-1.49,0-2.59.61-2.67,2.48,0,1.34-.08,4.31-.08,4.46h6.22c-.3,2.17-.58,4.24-.88,6.34h-5.34l-.12,15.81H-49l.12-15.84h-5.36l.05-6.3h5.39V63.9c0-1.27,0-2.54,0-3.81a15.19,15.19,0,0,1,.21-2.41A7.14,7.14,0,0,1-45.65,53a8.24,8.24,0,0,1,4.73-1.47Z" transform="translate(54.21 -51.5)"/>
</svg>