<svg id="Layer_1" data-name="Layer 1" xmlns="http://www.w3.org/2000/svg" viewBox="0 0 30.99 30.98">
<defs>
<style>.cls-1{fill:#fff;}</style>
</defs>
<path class="cls-1" d="M322.55,79.85h0a1.84,1.84,0,0,1,1.84,1.87,1.88,1.88,0,0,1-1.88,1.85,1.86,1.86,0,0,1,0-3.72Zm4.51-2.9a8.51,8.51,0,0,0-5.65-2.31c-1.76-.1-4.68-.18-7.57-.18a59.85,59.85,0,0,0-7.76.35,7.91,7.91,0,0,0-6.76,6c-.75,2.64-.71,14.78-.29,17.4A7.77,7.77,0,0,0,305.2,105a52.67,52.67,0,0,0,8.61.46,74.86,74.86,0,0,0,8.54-.35,7.93,7.93,0,0,0,6.85-6.19c.71-2.7.56-14.22.33-16.66A8.11,8.11,0,0,0,327.06,77Zm-.51,20.77a5.29,5.29,0,0,1-5,4.69c-1.2.13-4.39.23-7.64.23a47.54,47.54,0,0,1-8.33-.46,5,5,0,0,1-3.83-4.38,106.61,106.61,0,0,1,.11-15.64,5.31,5.31,0,0,1,5-4.66c1.35-.15,4.42-.23,7.51-.23a71.75,71.75,0,0,1,7.74.29,5.21,5.21,0,0,1,4.65,4.94,110.83,110.83,0,0,1-.2,15.22M306.28,90a7.87,7.87,0,0,0,7.88,8,8,8,0,0,0,8-7.94A7.87,7.87,0,0,0,314.29,82,8,8,0,0,0,306.28,90Zm7.9,5.14h-.05a5.1,5.1,0,0,1-5.05-5.19,5.2,5.2,0,0,1,5.18-5.09h.05A5.09,5.09,0,0,1,319.36,90a5.2,5.2,0,0,1-5.18,5.09" transform="translate(-298.73 -74.46)"/>
</svg>