<svg id="Layer_1" data-name="Layer 1" xmlns="http://www.w3.org/2000/svg" viewBox="0 0 28.27 28.32">
<defs>
<style>.cls-1{fill:#fff;}</style>
</defs>
<path class="cls-1" d="M-71.58,155.12a3.37,3.37,0,0,1,3.38,3.41,3.43,3.43,0,0,1-3.43,3.41A3.38,3.38,0,0,1-75,158.53,3.44,3.44,0,0,1-71.58,155.12Zm-3,9.4-.14,18.92h5.88l.15-18.92Zm15.27,2.58h-.08l0-2.58H-65l-.14,18.92h5.88l.07-9.36c0-2.47.5-4.86,3.56-4.86s3,2.82,3,5l-.07,9.19h5.88l.08-10.38c0-5.1-1-9-7-9A6.25,6.25,0,0,0-59.32,167.1Z" transform="translate(75.01 -155.12)"/>
</svg>