<svg xmlns="http://www.w3.org/2000/svg" id="Ebene_1" data-name="Ebene 1" viewBox="0 0 90.71 90.71">
  <defs/>
  <defs>
    <style>
      .cls-3{fill:#fff}
    </style>
  </defs>
  <path fill="none" stroke="#fff" stroke-width="4" d="M45.36 68.45a23.1 23.1 0 10-23.1-23.09 23.09 23.09 0 0023.1 23.09z"/>
  <circle cx="45.35" cy="45.35" r="17.42" fill="none" stroke="#fff" stroke-width="2"/>
  <path d="M14.21 21.3v.06zM15.24 22.22a.07.07 0 00-.09 0zM15 22h-.05.05zM15.46 22.4v.07zM15 22.07h-.07c-.01 0 0 0 0 0zM15.67 22.58v.06s-.01-.05 0-.06zM16.7 23.45h.05c.05 0-.04.01-.05 0zM16.52 23.4a.14.14 0 000-.11h-.09a.1.1 0 01.09.11zM34.49 6.34h.08v-.09a.29.29 0 00-.1.08zM16.39 23.23v-.05h-.05v.05h.05zM15.34 18.52zM19 14.45h-.06v.07zM14.12 30.77v-.07a.08.08 0 00-.09 0 .44.44 0 000 .15s.07-.05.09-.08zM11.77 37.08v0zM11.52 37.06v-.05h-.06zM13.24 20.44h-.04v.06zM12.71 29s.12.06.15 0a2 2 0 00.31-.43l.27-.45v-.16a2.52 2.52 0 01-.33-.15.34.34 0 00-.17-.05h-.17c-.49-.27-1.09-.3-1.59-.52H11a.18.18 0 000 .21c.09.06 1.61 1.47 1.71 1.55zM15.27 18.39h.06c.01 0 0 .05 0 .05h.07s0-.09-.05-.13zM15.13 18.45s-.02.01 0 0zM14 21.09h-.07v.05c0 .05.07-.03.07-.05zM14 19.3v-.05h-.05zM14 21.16h-.06zM21 17v-.05a.14.14 0 000 .05zM21.83 18.08zM26 9.56v-.05a.08.08 0 000 .08zM21.66 18a.17.17 0 00.06-.11h-.09s.05.11.03.11zM21.58 17.78v-.05h-.06v.05h.07zM21.13 17.31a.11.11 0 00.07 0v-.06h-.11v.07s.02-.02.04-.01zM11 37.84s0-.06-.07-.06a.1.1 0 00.07.06zM31.59 14.07a.07.07 0 000-.09h-.07c-.07 0 0 0 0 0a.05.05 0 00.07.09zM34.47 6v.07c0 .07 0 0 0 0zM19.63 15.24h-.07v.05c0 .05.06-.04.07-.05zM27.41 8.74a.05.05 0 00-.07 0 .06.06 0 000 .06h.07a.06.06 0 000-.06zM26.2 9.87v-.09a.27.27 0 00-.09.1h.11zM27.05 11.73s-.07-.08-.1-.07a.25.25 0 00.12.07zM21.46 12.85v.06h.06v-.14h-.05a.06.06 0 01-.01.08zM21.25 12.87s-.02.01 0 0zM20 13.49v-.05zM20.87 16.79v.07s-.01-.06 0-.07z" class="cls-3" transform="translate(-1.26 -1.46)"/>
  <path d="M19.62 15.31a.06.06 0 00-.07 0zM19.84 15.48v.06h.05zM21.45 13zM20.44 16.4h-.08c-.01 0 0 0 0 0zM20.64 16.59a.07.07 0 00-.08 0h.08zM20.41 16.3zM6.71 49.76h.07a.07.07 0 000-.07.1.1 0 00-.07.07zM6.46 49.84a.09.09 0 00-.06.07h.06v-.06c0-.06 0 0 0 0zM5.85 49.68a.11.11 0 00.1.07H6a.07.07 0 000-.07.07.07 0 00-.08-.07.09.09 0 00-.07.07zM6.64 49.91a.05.05 0 00.06 0v-.05a.05.05 0 00-.06.05zM7.5 48a.08.08 0 00-.06.08s0 .07.06.07 0-.15 0-.15zM7.61 48.28a.1.1 0 00-.08-.06.06.06 0 000 .07.08.08 0 00.06 0zM5.73 49.34a.09.09 0 000 .09s0 .08.06.08a.12.12 0 00.09-.11.07.07 0 00-.15-.06zM6.85 35.64v-.06h-.08.05zM6.47 36.24s-.01.01 0 0zM5.6 48.36h.07c.07 0 0 0 0-.06s-.05.05-.07.06zM6.31 35.4zM5.69 49.21a.11.11 0 000-.06.06.06 0 000 .06zM11 55.08V55s0 .05 0 0zM10 54.79l.07.07a.08.08 0 000-.06s-.1-.05-.11-.05.04.03.04.04zM9.92 54.83v-.13H9.7c-.03 0 0 0 0 0s.18.14.22.13zM7.64 49.27v-.06a.05.05 0 00-.07-.05l-.05.05a.07.07 0 000 .06zM9.74 54.87v-.06c0-.06 0 0 0 0zM9.59 54.87s.06 0 .05-.07-.06.06-.05.07zM9.84 54.82h-.05s.05.01.05 0zM7.27 36.67v-.06a.08.08 0 000 .07zM10 57.34s0-.01 0 0z" class="cls-3" transform="translate(-1.26 -1.46)"/>
  <path d="M7.57 49.44v.07c.06 0 .1-.14.09-.2s0-.07 0-.07a.14.14 0 00-.09.2zM11.23 55.26s0 .01 0 0zM7.9 36.06zM9.79 34.72v.05c0 .05-.01-.03 0-.05zM7.69 34v.1c0 .02 0 0 0 0s0-.06.06-.09 0 0 0-.07-.04.06-.06.06zM7.38 35.76s-.08.05-.12.05a.09.09 0 00.12-.05zM7 33zM10.35 34.61h-.06s.06.01.06 0zM9.3 34.71zM11.88 34.82s-.01.03 0 0zM10 37.55h-.06c-.06 0 0 0 0 0s.06.03.06 0zM10.52 34.68v-.05zM11.75 34.7zM11.68 34.71l-.04-.02zM7.16 33zM8.24 36.09h-.05.08zM8.07 36.05zM7.86 34.07V34.08c0-.05 0 0 0 0zM8.67 34.73c.05 0 .09 0 .11-.09a.11.11 0 000-.06h-.07-.05a.08.08 0 00.01.15zM7.54 36zM10.49 36.57v-.06c0-.06 0 0 0 0a.12.12 0 000 .09zM8 34.25a.15.15 0 000-.07v.07zM8.26 34.45s.01-.01 0 0zM8.9 35.19s-.01.01 0 0zM8.37 34.51a.11.11 0 000 .06c.06 0 .07 0 .09-.07s-.09-.01-.09.01zM10.17 54.78v.06s.01-.04 0-.06zM80.29 22.64a.08.08 0 00-.11 0 .13.13 0 000 .06zM81.52 24.6a.07.07 0 00.06 0s-.04-.02-.06 0zM80.25 23.45zM77.7 28zM72.92 22.08v-.07a.06.06 0 000 .08.07.07 0 000-.01zM80.07 25a1.15 1.15 0 001.14-.06 1 1 0 00.16-.12c.07-.07.06-.19.14-.24a1.07 1.07 0 000-1c-.06-.09-.11-.24-.18-.35a.37.37 0 00-.23-.23.26.26 0 00-.19 0 .23.23 0 00-.11.11l-.47.23v.07l-.41.25c-.34.2-.43.29-.49.41l.27.44a1 1 0 00.37.49zm1-1.89h-.05c-.05 0 0 0 0 0s-.02-.03-.02-.02zM77.31 27.36a.09.09 0 000 .09v-.1zM76.21 26H76a.17.17 0 00.11.06l.17-.12s.08-.05.07-.08a1.05 1.05 0 00-.14.14zM75.88 25.77s.01-.01 0 0zM77.6 28.06s0 .08-.06.13h-.06v.05h.08c.06 0 .15-.15.13-.19zM77.46 28.12h-.07a.06.06 0 000 .06h.06c.06 0 0 0 0-.06zM77.47 28.09a.06.06 0 00-.06 0h.06zM70.81 12.55s.01-.02 0 0zM70.7 12.17v-.06zM70.9 11.73v-.06h-.06zM70.92 11.92a.07.07 0 000 .09.07.07 0 000-.07v-.02zM70.86 12v.05h.06v.28c0 .08 0 0 .06 0h.09c0-.07-.12-.09-.1-.14a.26.26 0 00.25-.06c-.22-.13-.22 0-.36-.13zM75.3 15.33h-.08c-.02 0 0 0 0 0zM76.48 16.37a.08.08 0 000-.08v.07a.07.07 0 000 .01zM75 15.61h.08a.24.24 0 00-.12 0zM73.57 17s.06-.1 0-.12a.16.16 0 000 .14V17zM70.64 12.17zM70.72 12.28h-.13.13zM71.17 12v-.12c0-.01-.14 0-.15.05s.1.07.15.07zM85.68 49.3s-.05 0-.05.08.06 0 .07-.06a.08.08 0 000-.08zM85.64 49.14a.08.08 0 000-.07.07.07 0 00-.06 0 .08.08 0 00.07.07zM85.72 48.16v-.07a.06.06 0 00-.05.06.07.07 0 00.07.06s-.02-.02-.02-.05zM85.7 47.81c-.06 0-.12.13-.12.2v.07a.15.15 0 00.15-.13s0-.11-.03-.14zM86.52 47.72a.07.07 0 000 .07.08.08 0 00.07-.08s-.07-.01-.07.01zM88.33 38h-.06zM75.75 25.57v.06a.08.08 0 000-.07v.01zM84.14 38.54zM82.34 39a.1.1 0 00-.1 0 .1.1 0 00.06 0h.09zM84.7 38.49v-.05c0-.05 0 0 0 0v.05zM85 38.42l.06-.1s-.06.08-.06.1zM86.61 47.57a.09.09 0 00.07 0 .05.05 0 00-.07 0zM80.58 34.76s0 .05.07 0 0 0 0-.07a.05.05 0 00-.07.07zM85.64 29.66h-.07c-.07 0 0 0 0 0s.05.01.07 0zM86.29 31.1a.06.06 0 000-.07h-.06v.07c0 .07 0 .05.06 0zM83.37 30.48s.1-.07.09-.1a.31.31 0 00-.09.12s-.02-.02 0-.02zM85.36 29.79s-.08-.1-.09-.09v.07s.02.05.09.02zM87.54 49.2a.06.06 0 00.06 0h-.07c-.07 0 .01-.04.01 0zM87.47 47.88a.09.09 0 00-.08-.08.08.08 0 000 .07.08.08 0 00.16 0zM87.59 48.09a.09.09 0 00-.1.09.09.09 0 00.08 0 .09.09 0 000-.09h.02zM86.9 47.59h-.06a.09.09 0 00.06-.06zM87.6 48.5v-.07a.06.06 0 000 .06zM70.89 11.82h-.07c-.07 0 0 0 0 0a.1.1 0 00.07 0zM51.5 9.36V9.3a.24.24 0 000 .13zM51.58 9v-.1s-.05 0-.06.05a.3.3 0 000 .16s.05-.04.06-.11zM46.49 10.74h-.05a.05.05 0 00.05 0v-.06zM46.54 10.46h.06zM46.51 10.59s.06.06.08.12v.12s0-.2-.09-.2zM51.74 8.47v-.05.05zM51.76 9.18l-.15.34a.12.12 0 000 .1c-.06.3.2.58.41.76a.54.54 0 00.23.1 2.72 2.72 0 00.43 0h.06c.56 0 .68-.47.74-.74l.47-2.27a1.39 1.39 0 010-.41l.14-.58a1.66 1.66 0 000-.22A1.28 1.28 0 0054 5.6l-.11-.06a.71.71 0 00-.42-.22 1.05 1.05 0 00-.5 0 .9.9 0 00-.56.7.14.14 0 010 .11.91.91 0 01-.13.26.28.28 0 010 .2l-.07.24a.17.17 0 000 .1.33.33 0 010 .19c0 .09-.08.18-.1.29s-.13.38-.17.56a.86.86 0 000 .28.62.62 0 00-.12.26v.41a.24.24 0 010 .09.23.23 0 01-.06.17zM51.83 8.14v-.06-.05.11zM51.61 8.83a.1.1 0 000-.07v.06zM46.47 10.71zM51.62 9.23v-.08a.09.09 0 000 .08zM45.54 5.52h-.06s.04-.01.06 0zM43.09 5.53a.05.05 0 000-.08s-.07 0-.07.08zM45.81 10.58s-.06-.06-.08-.06.06.06.08.06zM43.5 11h-.06c-.06 0 0 0 0 0h.07zM36 5.51a.07.07 0 00-.07 0h.06c.06 0 .01.02.01 0zM39 11.54h-.11.07a.06.06 0 00.04 0zM43.72 11zM43.94 11a.18.18 0 00.1-.06.09.09 0 000-.05v-.2-.1V10.88c0 .01-.1 0-.1.06s-.03.06 0 .06zM51.85 7.9a.28.28 0 00.09-.13.1.1 0 000-.09s-.05.06-.06.14 0 .14 0 .14l-.03-.06zM35 8.36s0-.1-.08-.09.08.08.08.09zM43.86 5.87v.55a1.17 1.17 0 00.11.63h.51a1.1 1.1 0 00.57-.14 1.15 1.15 0 00.52-1 1.36 1.36 0 000-.2c0-.09-.14-.15-.14-.24a1.08 1.08 0 00-.85-.47h-.39a.43.43 0 00-.31.12.24.24 0 00-.07.18.28.28 0 000 .15c.08.05.06.27.05.42zm.1-.76H44zM43.86 6zM67.22 14a.11.11 0 000 .06zM66.93 14.18h-.06zM67.28 13.67v.08zM66.88 14.28zM66.5 15v-.06c0-.01 0 0 0 0zM70.44 12.24h-.07zM70.65 12.05h.06v-.07l.09.05v-.06h-.13v-.08h-.09c0 .07.06.1 0 .19zM70.61 12.55v-.06c0-.06 0 0 0 0s-.01.08 0 .06zM70.49 12.59zM70.36 12.06V12c0-.01-.07 0-.08 0s0 0 0 .07a.08.08 0 00.08-.01zM65.71 16.39s-.02.01 0 0zM53.17 3zM59.26 11.28h.07v-.11.05l-.07.06zM59.07 11.09v-.05c0-.05 0 0 0 0v.06zM58.62 11.5zM52.09 7v-.07V7zM52 7.32V7.1s0 .06-.07.15a.56.56 0 000 .29s.07-.11.07-.22zM63.26 9.16v-.08s-.03.07 0 .08zM62.05 11.81H62v.05s0-.03.05-.05zM59.34 11.38a.06.06 0 000-.06s-.01.06 0 .06zM62.05 12H62s0 .06.05 0zM60.42 7h.06s-.06-.07-.06 0zM15.87 22.83a.11.11 0 00.06 0v-.06h-.05-.06c-.06 0 0 .05 0 .07zM77.51 70.54v.06h.07a.47.47 0 000-.12zM70.78 80.16h.06a.09.09 0 00-.06 0z" class="cls-3" transform="translate(-1.26 -1.46)"/>
  <path d="M71 77.37a1.65 1.65 0 01-.29-.3l-.36-.47-.15-.17a1.31 1.31 0 00-.68-.3l-.12.05a.71.71 0 00-.44.19 1.18 1.18 0 00-.31.38.91.91 0 00.19.88.19.19 0 01.08.07.74.74 0 01.08.3.25.25 0 01.17.1l.14.21.08.07a.25.25 0 01.15.1c.06.07.09.17.16.26s.22.34.34.49a.71.71 0 00.2.18.53.53 0 00.13.26c.08.11.2.21.28.3a.35.35 0 010 .08.22.22 0 01.16.08l.16.33a.19.19 0 00.08.07.9.9 0 00.85.17.8.8 0 00.22-.12 1.89 1.89 0 00.3-.32.74.74 0 00-.11-1zM77.9 71a.06.06 0 000 .06c.06.05.1 0 .12 0s0 .07 0 .08v-.06s-.09-.08-.12-.08zM77.93 70.83s-.08-.05-.11 0a.08.08 0 000 .08c.06-.08.1 0 .15 0L78 71a.34.34 0 00-.07-.17zM70.81 80.34h-.06s.11.08.13.07z" class="cls-3" transform="translate(-1.26 -1.46)"/>
  <path d="M70.06 79.3v.05c0 .05 0 0 .06 0s0 0 0-.06-.05-.01-.06.01zM78.23 71.14s-.1-.07-.11 0 0 .05 0 .07 0 0 .06 0a.09.09 0 00.09 0s.03-.02-.04-.07zM63.49 79.85s.01.02 0 0zM70.45 79.94h.06s-.04-.01-.06 0zM70.55 80.08a.05.05 0 000 .08.25.25 0 00.14.08v-.11c0-.05-.12-.07-.14-.05zM78.6 71.47l-.14-.09h-.1a.08.08 0 000 .06h.08v.05a.11.11 0 00.08 0h.07a.24.24 0 00.13 0zM79.9 74a.07.07 0 01.1 0v.09c0 .03 0 0-.06 0a.07.07 0 000 .08.3.3 0 00.08-.07v-.18c0-.1 0 0-.06 0zM78.3 72h-.07c-.01 0 0 .14.14.22s.06 0 .09 0-.11-.15-.16-.22z" class="cls-3" transform="translate(-1.26 -1.46)"/>
  <path d="M80 73.9a.23.23 0 00.11 0v-.14h-.07s.02.08-.04.14zM79.93 73.84v-.06h-.05.05zM79.58 73.85s-.02-.01 0 0zM80 73.68l.08-.1a.25.25 0 000 .08s0-.12.06-.17 0 .08 0 .1-.07.06-.1.1zM78.76 75.07c-.14 0-.12.09-.29 0a.3.3 0 00.29-.07zM79.35 74.75v.06a.06.06 0 00.06 0v-.07zM69.84 79a.06.06 0 00-.06 0s0 .08.06.14.1.1.12.09a.21.21 0 000-.16zM78.81 75.06h.16c-.04-.06-.07-.06-.16 0zM63 79.5a.06.06 0 00-.08 0s.08.01.08 0zM62.73 79.66v.08c.06 0 .12 0 .19.06v-.07-.06l.08-.07a.06.06 0 00-.07 0l-.1.1s-.07 0-.1-.04zM63 79.58h.11s.09 0 .14.08 0 0 0-.07l.06-.07c-.06 0-.14.06-.17 0h-.06a.32.32 0 00.07-.25c-.07.18.02.23-.15.31z" class="cls-3" transform="translate(-1.26 -1.46)"/>
  <path d="M63.05 79.4s0-.09.07-.11-.08 0-.1 0 0 .13 0 .16zM79.62 73.06h0zM63.29 80.13a.08.08 0 00.07 0zM63.3 80.09h-.06a.06.06 0 00.06 0zM63 80v.06zM63 79.82a.08.08 0 00.05 0H63zM63.23 79.8s-.05.09 0 .13h.06s-.09-.12-.06-.13zM63.16 79.75h-.08s.09.01.08 0zM62.8 80h-.06c-.06 0-.05 0 0 .07s0 0 .07 0a.09.09 0 00-.01-.07zM63.07 84.1v.05zM62.8 79.53a.14.14 0 00.05-.08h-.05v.07c0 .07-.01.02 0 .01zM63.45 84.79v.06c0 .06 0 0 0 0v-.06zM64.38 86.24zM69.36 78.44h.06c.06 0 0 0 0 0s-.04-.01-.06 0zM63 84zM63 83.73h-.06.06zM69.46 78.56s0 .08.07.15.2.21.22.19a.5.5 0 00-.12-.19c-.07-.09-.15-.17-.17-.15zM62.77 79.41h-.06c-.06 0 0 0 0 0s.03.01.06 0zM62.72 83.5h.06zM70.25 79.67h-.07zM84.45 57.36h.09v-.06s-.08.04-.09.06zM84.79 55.82s0 .09.06.1.09-.07.1-.11a.35.35 0 000-.06zM87.85 58h-.06zM88.08 57.9v.06a.08.08 0 000-.06zM85.37 55.79zM85 56.37a.07.07 0 000-.05zM83.75 57.28zM84.25 57.32s.01-.03 0 0zM83.45 57.13s.08 0 .09-.06-.05.06-.09.06zM84.09 57.36s0-.02 0 0zM87.7 55.58zM87.77 55.56zM87.4 58.79s-.05 0-.08-.06a.15.15 0 00.08.06zM80.49 63.37a.06.06 0 000-.06v.07zM87.93 55.66a.05.05 0 00-.05.05s.06 0 .07-.05zM86.56 55.63v-.06zM83.52 58a.07.07 0 000 .07v-.06zM86.77 57.57v.09c0 .01-.01-.07 0-.09zM86.43 58.6s0 .03 0 0zM86.33 55.68v-.06a.1.1 0 010 .06zM85.8 55.79h0z" class="cls-3" transform="translate(-1.26 -1.46)"/>
  <path d="M46.62 1.46A45.36 45.36 0 1092 46.82 45.36 45.36 0 0046.62 1.46zm42.15 36.79a.63.63 0 01-.48.39h-.23a.32.32 0 00-.17 0h-.18a.37.37 0 01-.21 0h-.25l-.76.22a.78.78 0 01-.37 0 .29.29 0 01-.1 0 1.07 1.07 0 01-.36 0s0 .07-.07.08 0 .06 0 .06h-.13l-.32.07h-.39a.6.6 0 01-.23.1l-.42.06h-.45a.27.27 0 00-.16.08h-.06a.51.51 0 01-.18.07h-.24a.89.89 0 00-.19.07c-.32 0-.55.11-.83 0a.77.77 0 01-.1-.23 1.24 1.24 0 010-.51.67.67 0 01.43-.26l.72-.09h.27l.32-.07c.22 0 .45-.07.67-.08a3.65 3.65 0 01.5-.15c.51-.11 1.06-.14 1.51-.24l2-.43c.16.26.34.61.46.86zM87.76 49a.34.34 0 01-.08.25.2.2 0 01.11.17.21.21 0 01-.21.18c0 .21-.25 0-.32.31a.1.1 0 01-.11.09c-.08 0-.2-.06-.3-.07s-.16.09-.25.08 0-.07-.27-.09-.48-.13-.54-.25-.23-.25-.35-.41a1.92 1.92 0 000-.22.73.73 0 00-.09-.42c.14-.35 0-.8.41-.93.12-.24.43-.3.7-.32a.11.11 0 00.1.06h.17c.05 0 .06 0 .08.08h.38a.34.34 0 01.29.15c0 .17.21.21.21.33a.25.25 0 010 .07.17.17 0 01.14.19v.31c0 .04-.06.31-.07.44zm-4.71-18.66l.16-.05.22-.07.2-.08a1 1 0 01.31-.05c1.15-.42 1.4-.54 1.54-.59s.08.05.11 0a.76.76 0 01.42.47 1.16 1.16 0 010 .18v.05s.12.06.14.12a.38.38 0 000 .19l.16.34a.5.5 0 010 .21s.08 0 .09.05 0 .1 0 .13a.15.15 0 000 .06s.06.05.08.1c.06.21.11.43.18.64a1.74 1.74 0 00.23.45.66.66 0 01-.19.49 1 1 0 01-.61 0 1.75 1.75 0 01-.37-.7 2.13 2.13 0 00-.14-.35c-.08-.27-.16-.63-.24-.9a.26.26 0 010-.09v-.16a.18.18 0 00-.21-.15h-.17L84 31a4.34 4.34 0 00-.5.2.36.36 0 000 .27 1 1 0 00.18.29c0 .08.06.15.08.22.1.28.15.54.25.86h.09c0 .09.09.32 0 .48s-.14.21-.26.26l-.18.06h-.22c-.2-.15-.17-.36-.33-.47a2.58 2.58 0 00-.11-.42l-.23-.66a2.83 2.83 0 01-.13-.5.43.43 0 00-.24-.16c-.55.15-1 .31-1.6.51-.12 0-.15.16-.18.26.14.3.26.6.37.91.15.46.28.92.42 1.38a.36.36 0 01-.26.31.19.19 0 01-.1 0c-.17 0-.39.13-.52 0 0-.07-.1-.1-.12-.15s0 0 0-.07a.19.19 0 01-.09-.09v-.27a.53.53 0 000-.16l-.35-.78a.87.87 0 01-.05-.22v-.08c-.07-.2-.07-.43-.15-.66a.27.27 0 000-.11c-.12-.11-.12-.33-.24-.44.13-.05.08-.26.19-.3h.07c.08 0 .14-.16.21-.18a.11.11 0 01.08 0H80a1.51 1.51 0 00.17-.1h.19l.28-.12a.74.74 0 01.24-.05l.46-.17a1.78 1.78 0 00.48-.23h.4a.23.23 0 01.11-.09h.26a1.43 1.43 0 00.46-.19zm-36.43 50a33.52 33.52 0 1133.51-33.52 33.51 33.51 0 01-33.51 33.51zM79.18 63V63.01c0-.05 0 0-.07 0a.11.11 0 01.11 0zm-60 14.5h-.05v-.07c0-.07 0 0 0 0zM45.6 10.34zm34 15.94h-.06zm.16-.19v-.05s.02.07.01.05zm.09-.06v-.06H80a.06.06 0 010 .07h-.06zm.17-.11h.1a.07.07 0 01-.06 0s-.06.02-.06 0zm.2.06v-.05zm2.23-2.33h.06c.06 0 0-.06 0-.07v.1zm-3.09-.57c.24-.15.5-.31.77-.45v-.08l.25-.1c.29-.2.65-.4.94-.61h.09l.1.17.1.16.39.63a3.6 3.6 0 01.38.79v.07a2.19 2.19 0 01-.15 1.37 1.84 1.84 0 01-.6.58 1.77 1.77 0 01-1.36.25.53.53 0 00-.43 0l-.04.14c-.28.32-.57.62-.84.9-.43.43-.85.85-1.3 1.33a.8.8 0 01-.13.13h-.15c-.06 0-.13-.21-.21-.29s-.22-.23-.22-.23a.92.92 0 01.2-.29c0-.11.24-.15.3-.34.37-.31.7-.64 1-1s.46-.47.7-.69v-.09c0-.02 0-.05-.1-.08l-.3-.53a1.77 1.77 0 00-.16-.22.59.59 0 00-.2.07l-.24.18-.1.05-.2.12c-.48.29-.89.6-1.34.89l-.49.31a.65.65 0 01-.2-.18l-.09-.15c-.05-.1-.11-.17-.2-.31a2 2 0 01.44-.33l.42-.23.22-.16.33-.2a3.47 3.47 0 00.37-.26zm-2 4.11zm-5.77-8.61c.11-.12.23-.24.35-.35a1.61 1.61 0 00.34-.41l.35-.2a.23.23 0 01.06-.13l.15-.11.06-.07a1.88 1.88 0 00.34-.28l.12-.12.17-.15.15-.15a.86.86 0 01.26-.18c.87-.86 1-1.08 1.15-1.18s.1 0 .12 0a.74.74 0 01.58.26.76.76 0 01.11.14v.06c0 .01.13 0 .18 0a.42.42 0 00.11.17l.28.24a.42.42 0 01.11.18h.1c.02 0 0 .09.07.11a.11.11 0 000 .06s.08 0 .12.06c.14.16.28.35.43.51a1.72 1.72 0 00.4.31.59.59 0 010 .52.93.93 0 01-.55.27 1.73 1.73 0 01-.62-.48 2.2 2.2 0 00-.27-.26c-.19-.21-.41-.5-.6-.72l-.08-.06-.11-.12c-.07-.07-.13-.12-.25 0l-.14.11-.76.73a4.51 4.51 0 00-.37.39.35.35 0 00.1.26 1.12 1.12 0 00.29.19 1.21 1.21 0 01.16.16c.21.21.36.43.59.68h.1c0 .1.21.25.25.41a.33.33 0 01-.13.35l-.14.13L75 20c-.24 0-.3-.26-.5-.29a1.76 1.76 0 00-.27-.33l-.48-.51a2.44 2.44 0 01-.33-.39.43.43 0 00-.28-.05c-.44.37-.82.71-1.25 1.13-.09.09-.06.2-.05.32a9.07 9.07 0 01.72.67c.33.34.64.71 1 1.07a.36.36 0 01-.11.39l-.08.07c-.15.08-.3.29-.49.19s-.13 0-.17-.09a.08.08 0 010-.06.22.22 0 01-.12-.05l-.13-.24a.53.53 0 00-.1-.12l-.64-.57a.8.8 0 01-.15-.17l-.07-.06c-.14-.15-.24-.37-.4-.54l-.09-.08c-.17 0-.26-.25-.42-.3.11-.1 0-.27 0-.34a.09.09 0 01.06 0c.07-.06.06-.19.12-.25a.11.11 0 01.07 0h.08A1.63 1.63 0 0071 19s.12 0 .16-.08l.21-.23a.77.77 0 01.21-.11zm-1-5.83h.06c.06 0 0 0 0 0s-.11.01-.12 0zm-5 3.24a.11.11 0 010-.06l.09-.11a.16.16 0 000-.2h.1a.16.16 0 010-.14c0-.06.15-.08.2-.15s0-.13 0-.16a.11.11 0 00.15-.06s.06-.14.09-.18a.13.13 0 010-.11s.12-.06.16-.12a.13.13 0 000-.11.49.49 0 00.17-.15l.12-.2v-.07h.08l.07-.09v-.09a.17.17 0 00.14-.05l.07-.22s.06-.06.13-.06a.46.46 0 01.11-.22l.09-.14s0-.09.08-.14v-.07l.21-.3a.19.19 0 010-.11l.16-.1a.1.1 0 000-.11.06.06 0 01.09 0l.21-.36a.57.57 0 01.15-.12.25.25 0 010-.09l.18-.2a.22.22 0 000-.11.28.28 0 01-.15-.06l-.23-.18-.18-.09.24-.26a.41.41 0 01-.22-.45v-.19c0-.07.15-.07.19-.13s0 0 0-.06.18-.14.3-.19a2.18 2.18 0 01.72.31 1.67 1.67 0 01.38.37.23.23 0 01.1 0c.09.07.13.17.21.24l.79.48v.05h.14a.09.09 0 010 .08.17.17 0 01.1 0s.07.1.14.15h.13a.15.15 0 01.07.16h-.08c.09.1 0 .17 0 .26s.06.07 0 .09c-.06.09-.15 0-.22 0h.07v.07a.38.38 0 010 .1s-.18.19-.23.16 0-.08-.06-.13c0 .08-.19 0-.23 0h-.11c-.11-.08-.22-.24-.35-.33s-.37-.1-.56.17l-.36.67c0 .05-.11.09-.14.14a.92.92 0 01-.11.23l-.89 1.45c-.43.62-.88 1.23-1.36 1.87a1.06 1.06 0 01-.67.14 1.22 1.22 0 01-.16-.14.1.1 0 00-.1 0l-.11-.17v-.31a.14.14 0 01.05-.09zm-7.22-4.37v-.28l.11-.22a.31.31 0 000-.13.47.47 0 01.46-.13l.15.08h.13c.12 0 .17.17.27.26.15.31-.05.57-.05.87a1.23 1.23 0 00.5.55c.09-.05.19 0 .28 0l.44-.1c.08-.16.29-.21.35-.35a2.36 2.36 0 000-.92 4.38 4.38 0 00-.64-1.16c-.16-.51-.49-1-.6-1.55a1.29 1.29 0 000-.55s.06-.09.08-.14.09-.39.15-.54a.41.41 0 01.18-.21l.09-.21s.07 0 .1-.05v-.13c.06 0 .17.06.19 0a.06.06 0 000-.06h.07v-.02c.12 0 .31-.07.45-.13s.18 0 .26 0l.21-.06v.09a.13.13 0 01.12 0c.08 0 .13.12.22.16a.22.22 0 00.14 0h.09a.72.72 0 00.27 0 3.83 3.83 0 01.53.39h.07a3.56 3.56 0 01.3.6h.05c-.06.12.09.22 0 .32 0 .09.07.15 0 .22.11.18 0 .25 0 .42a.3.3 0 01.08.2c-.16.09-.14.3-.32.4s-.11 0-.14.09c-.09.06-.21-.1-.25 0a.08.08 0 000-.08h-.19c-.06 0 0-.09-.1-.11s-.13-.3-.11-.48v-.8a1.4 1.4 0 00-.57-.48c-.61-.26-.74.2-1 .37-.18.77.52 1.48.82 2.1s0 .18.1.25c.13 0 .09.32.24.39s0 .43.2.59a.63.63 0 00.09.44.38.38 0 00-.09.13c-.07.15 0 .34-.09.52s.06.06 0 .1-.07 0-.07 0a.44.44 0 010 .09h-.12a.16.16 0 010 .09c-.15.2-.35.32-.44.5-.18 0-.16.25-.34.21a.06.06 0 010 .06c0 .09-.19 0-.24.09a.1.1 0 000-.06c-.1 0-.27 0-.37.06a3.23 3.23 0 01-1-.24 2.83 2.83 0 01-.71-.45c.06-.12-.13-.09-.14-.2h-.08c.17.16-.41-.26-.17-.8zm-4.12-8.26a.14.14 0 01.13-.1h.26a.38.38 0 01.13.06c.06 0 .1 0 .09.11 0 .11.08.12.06.22a1 1 0 000 .17s-.13.12-.22.18a.26.26 0 01-.21.06.3.3 0 01-.11 0L54.31 4a.39.39 0 01-.13-.25 1.06 1.06 0 000-.19zm-.14.25v.06zm-1.51-.39a.87.87 0 01.17-.22c.07-.08.15 0 .22-.08s0 .06.07.07.06 0 .08 0 0 0 0 .06v.06c0 .06.09 0 .08.09s0 0 0 .14v.14c-.11.24-.17.17-.28.27a.1.1 0 01-.09 0h-.13a.36.36 0 01-.23-.14c-.08-.09-.07-.12-.09-.24s.2-.12.2-.15zm-1.93 6.24L51 8.19a2.51 2.51 0 000-.27v-.14a2.74 2.74 0 00.09-.39l.21-1a7.8 7.8 0 01.35-1.28c.2-.34.37-.36.64-.52a6.5 6.5 0 01.62-.21h.79a.5.5 0 01.21.09l.61.4A1.87 1.87 0 0155 6.6a1.92 1.92 0 01-.08.3.2.2 0 000 .11l-.07.53a.83.83 0 01-.08.22l-.14.81v.37a.35.35 0 01-.06.17 2 2 0 010 .25l-.15.51v.16c-.08.36-.33.55-.49.87a1.85 1.85 0 01-1.61.55h-.17a2 2 0 01-1.13-.94c0-.11-.14-.19-.15-.31a1.35 1.35 0 01-.2-.74zm-5.51-5.4s.07.05.07.07zm-2 .07h1.12a3.2 3.2 0 01.87.07s.06 0 .06.05a2.15 2.15 0 011.07.75 2.15 2.15 0 01.2.82A1.78 1.78 0 0146 7.16a.59.59 0 00-.21.37.28.28 0 000 .09c.13.41.24.81.35 1.18.15.59.3 1.17.5 1.79a.8.8 0 010 .18c0 .05 0 .1-.11.12s-.25 0-.36 0a1.82 1.82 0 01-.3.07.78.78 0 01-.15-.32c-.09-.05 0-.29-.14-.42-.08-.48-.2-.94-.32-1.4s-.17-.63-.25-1h-1.07a.51.51 0 000 .2v.3a.41.41 0 010 .11v.24c0 .56.07 1.07.09 1.6v.58a.57.57 0 01-.25.08H43.21a1.66 1.66 0 01-.06-.54V9.3a3.57 3.57 0 000-.46V6.55v-.89a.1.1 0 01-.05-.08l.05-.26c0-.36 0-.77-.06-1.13zM46 7.23s0 .06 0 0zm0 .68zm-.12-.3v-.06c0-.06 0 0 0 0l.02.06zm0 0zm0-.27s0-.08.06-.08a.08.08 0 010 .13zM34.31 6a.78.78 0 01.53-.36.52.52 0 01.18 0s.06-.11.13-.12a.41.41 0 00.19 0l.36-.12a.38.38 0 01.21 0 .09.09 0 01.09-.12h.13a.07.07 0 00.06 0s.05 0 .1-.06c.22 0 .45-.05.67-.1a1.69 1.69 0 00.53-.12.63.63 0 01.51.2.91.91 0 01-.06.61 1.76 1.76 0 01-.73.28h-.06a2.22 2.22 0 00-.37.09c-.28.06-.64.09-.92.14h-.26c-.09 0-.17.06-.17.19v.17l.23 1a3.3 3.3 0 00.13.52.38.38 0 00.28 0 1.14 1.14 0 00.3-.13l.23-.06c.29-.07.55-.09.89-.15v-.08c.09 0 .33-.05.48 0s.2.16.23.28V8.48c-.17.18-.37.12-.51.27a2.65 2.65 0 00-.42.06l-.69.15a4 4 0 01-.5.07c-.09 0-.14.12-.19.21.08.57.18 1.07.31 1.65 0 .13.14.17.24.22a7.38 7.38 0 01.95-.26c.47-.1.94-.18 1.42-.26a.35.35 0 01.27.3.31.31 0 010 .11c0 .16.09.4-.1.51-.07 0-.12.09-.17.1a.07.07 0 01-.06 0 .17.17 0 01-.11.08h-.3a.4.4 0 00-.15 0l-.82.25h-.31c-.21 0-.44 0-.68.06h-.11c-.13.11-.35.08-.47.19 0-.14-.25-.11-.27-.22a.1.1 0 010-.07c0-.09-.14-.15-.16-.23a.1.1 0 010-.07v-.1a1.38 1.38 0 00-.08-.17v-.18c0-.06-.07-.2-.09-.3a.69.69 0 010-.24c0-.16-.08-.32-.11-.48a1.85 1.85 0 00-.18-.5v-.41a.18.18 0 01.09.11v-.18a.32.32 0 000-.09 1.3 1.3 0 00-.06-.44v-.16a1.85 1.85 0 010-.23L34.71 8a.85.85 0 010-.32c-.28-1.19-.37-1.45-.4-1.6s.06-.07.05-.11-.03.03-.05.03zm-8 3.11a1.27 1.27 0 01.17-.11h.05s0-.12.11-.15a.37.37 0 00.18-.05l.32-.19a.41.41 0 01.22 0v-.09a.79.79 0 01.13 0h.06c.06 0 .05-.07.09-.09.2-.08.42-.15.62-.24a1.6 1.6 0 00.43-.28.65.65 0 01.51.15 1 1 0 01.06.6 1.83 1.83 0 01-.65.44h-.06a3.65 3.65 0 00-.34.18c-.26.11-.6.22-.87.32a.16.16 0 01-.08.06l-.15.06c-.09 0-.16.09-.13.22l.05.17.44 1c.08.16.16.33.25.48a.31.31 0 00.28 0 .86.86 0 00.27-.2l.2-.1c.28-.13.53-.2.84-.33v-.09c.1 0 .31-.12.48-.1a.31.31 0 01.28.23l.08.17.07.23c-.12.21-.34.19-.43.37a3.93 3.93 0 00-.41.14l-.64.3a2.48 2.48 0 01-.48.17c-.08 0-.1.15-.14.25.21.54.41 1 .66 1.55.06.12.17.13.28.16a8.07 8.07 0 01.94-.54c.44-.2.89-.37 1.33-.55a.35.35 0 01.34.23.29.29 0 010 .1c0 .17.18.37 0 .52-.07 0-.1.11-.14.13h-.07a.18.18 0 01-.09.1h-.26l-.15.06-.74.42A1.19 1.19 0 0130 15c-.19.09-.42.11-.64.21a.33.33 0 00-.1.06c-.11.14-.33.16-.42.29-.06-.12-.27 0-.32-.15s0 0 0-.07-.16-.12-.2-.19 0-.06 0-.08a.29.29 0 000-.09 1.11 1.11 0 00-.11-.16 1.28 1.28 0 000-.18 2.34 2.34 0 01-.15-.27.75.75 0 01-.07-.23c-.08-.14-.15-.3-.22-.44a2.06 2.06 0 00-.27-.46l-.07-.39a.23.23 0 01-.11-.11l-.06-.17a.2.2 0 000-.08A1.9 1.9 0 0027 12l-.07-.15-.09-.21-.1-.19a1 1 0 01-.08-.3c-.52-1.12-.67-1.34-.73-1.48s0-.08 0-.12a.77.77 0 01.37-.48zm-7.51 5.14c.07-.05.11-.13.18-.18.3-.2.57-.4.85-.6l.18-.17.95-.72.27-.23a.16.16 0 01.22 0 1.63 1.63 0 00.11.17l.26.3a.48.48 0 01-.19.23l-.36.27-.1.09-.14.1-.4.32a1.52 1.52 0 01-.33.2l-.07.08-.25.15a.25.25 0 00-.11.26 1.37 1.37 0 01.23.25l.1.13a2.75 2.75 0 00.22.26.29.29 0 00.07.12l.19.22a.31.31 0 01.07.18l.06.06.12.2a.23.23 0 00.2.09c.54-.45 1.1-.88 1.63-1.32.2.07.32.33.53.45v.11a.12.12 0 010 .15l-1.68 1.26a.16.16 0 000 .2l.14.15a.36.36 0 010 .09v.05c.3.4.64.74.92 1.12a.77.77 0 01.21.23l.1.12a.81.81 0 00.29.29c0 .07.1.18 0 .26h-.08v.06a.22.22 0 00-.11 0c-.12.08-.14.25-.24.32a.17.17 0 01-.18 0c-.07 0-.17 0-.24-.06l-.06-.07-.09-.44a1.85 1.85 0 00-.14-.14.15.15 0 000-.09l-.1-.11a.29.29 0 010-.14.1.1 0 01-.07 0 2.12 2.12 0 00-.11-.21.11.11 0 00-.09-.05.22.22 0 00-.05-.14c-.08-.11-.23-.17-.3-.27a.17.17 0 01-.05-.12v-.05l-.15-.16-.59-.78c-.25-.33-.5-.66-.76-1s-.24-.36-.36-.53-.46-.58-.71-.85c0 0-.05-.07 0-.12a.21.21 0 000-.03zm-5.82 6c.06-.06.08-.15.14-.21.26-.25.49-.5.72-.75L14 19l.79-.89.22-.28a.18.18 0 01.22-.06.41.41 0 00.14.15l.31.25a.42.42 0 01-.14.26l-.29.33-.05.24a.68.68 0 00-.12.12l-.32.39a1.8 1.8 0 01-.29.26.41.41 0 01-.05.09l-.22.2a.24.24 0 00-.06.27 1 1 0 01.28.21l.12.11a2.26 2.26 0 00.26.2.53.53 0 00.09.11l.23.18a.32.32 0 01.11.17h.07l.16.17a.21.21 0 00.21.05c.44-.54.91-1.07 1.34-1.61.22 0 .39.26.61.34a.15.15 0 00.06.1.11.11 0 010 .14l-1.41 1.56a.16.16 0 000 .19l.17.13.05.07h.06c.38.34.77.61 1.12.93a.88.88 0 01.25.18l.12.11a1 1 0 00.34.22.22.22 0 01.09.25h-.08a.11.11 0 000 .06.21.21 0 00-.11.07c-.09.1-.08.27-.16.36a.18.18 0 01-.17.06c-.07.06-.18 0-.26 0l-.07-.06-.43-.45-.16-.12a.18.18 0 000-.07L17 24a.29.29 0 01-.08-.13.08.08 0 01-.08 0c-.05 0-.08-.13-.14-.18a.13.13 0 00-.1 0 .36.36 0 00-.08-.12c-.1-.09-.26-.12-.35-.2a.24.24 0 01-.07-.12.11.11 0 000-.05l-.21-.2-.73-.65c-.31-.28-.61-.55-.93-.79a4.86 4.86 0 00-.46-.45c-.27-.25-.56-.48-.86-.71 0-.05-.06-.06-.05-.11a.17.17 0 00.14-.05zm-4.25 6.18h.05s-.09-.1-.09-.11 0 0 .06 0a.18.18 0 000-.12.07.07 0 00.05 0 .42.42 0 000-.12L9 26v-.05l.09-.12v-.05c.46-.2.94.19 1.39.3.81.21 1.58.5 2.37.77.95.33 1.91.63 2.85 1h.06c.2.11.06.4 0 .55-.33.57-.59.11-.89.14-.14-.05-.52-.3-.64-.1l-.37.74a2.16 2.16 0 01-.29.37c0 .45.67.51.75 1h.06s0 .12.08.15a.28.28 0 010 .18l-.14.18a.42.42 0 000 .15l-.06.08a.94.94 0 000 .09.32.32 0 00-.19 0h-.11c-.26-.15-.38-.44-.63-.58l-.33-.37h-.06c-.07-.09-.18-.15-.25-.25l-.21-.2h-.05a3.12 3.12 0 00-.47-.49.13.13 0 00-.08-.1.11.11 0 00-.06 0c-.08-.07-.13-.17-.22-.22a.14.14 0 00-.13 0c-.06-.09-.06-.19-.16-.24h-.05a5.71 5.71 0 01-.61-.58h-.07l-.13-.14c-.38-.28-.68-.63-1.05-.92h-.12c-.07 0-.07-.13-.13-.16h-.08c-.07 0-.1-.12-.16-.16h-.08v-.09c0-.06 0-.1-.1-.15v-.3zm-3.62 9a.53.53 0 01.34-.43v-.12a.68.68 0 01.4 0c.28.09.53.34.85.45H7a3.49 3.49 0 01.79.41.93.93 0 01.23 0l.42.18s.06-.06.07-.1 0 0 0-.06c-.9-.78-1.78-1.6-2.62-2.45a1.07 1.07 0 010-.58.63.63 0 01.56-.48c.12.23.41.31.53.53h.12l.05.06c.05.06.15.2.2.33s0 .09.09.1c0 .08.1.07.12.13.09 0 .08.15.16.21s.39.33.56.52a.13.13 0 01.12 0 .4.4 0 01.15.12c.06 0 .16-.07.2-.06s.06 0 .1-.07a.12.12 0 00.07.07c.09 0 .19-.1.3-.06h.06c.16-.11.37.08.51-.08h.2a.15.15 0 00.16 0h.18a.1.1 0 010 .07h.07c.55-.14 1 .12 1.47-.08h.05l.3-.06h.06a1.53 1.53 0 01.27.41l-.05.11-.09.32a.59.59 0 01-.19.29 14.83 14.83 0 01-1.77 0c-.12.11-.21-.07-.44 0s-.41-.07-.63 0c-.07.22.25.21.28.4a.23.23 0 01.11 0 .76.76 0 01.41.43s.11.08.17.11h.1l.13.07a.5.5 0 00.32 0v.09c0 .04.32 0 .47.1a.32.32 0 01.23.21h.4c.11 0 0 .21.1.31a.43.43 0 00-.05.12 1.18 1.18 0 00-.08.38c-.15-.05-.09.13-.24.11v.07a.94.94 0 01-.44-.06h-.09a.28.28 0 01-.2.55l-.19-.08c-.34-.07-.63-.21-.94-.27-.06 0-.1-.1-.15-.14s-.11 0-.2 0l-.18-.1a.08.08 0 00-.11 0c0-.07-.07-.07-.13-.09h-.13l-.07-.09h-.13l-.12-.06a.32.32 0 01-.14 0l-.2-.09a.36.36 0 00-.15 0L7.89 37a1.47 1.47 0 00-.3-.08L6 36.36l-.39-.09h-.09a.56.56 0 01-.13 0 .09.09 0 01-.06-.06h-.06s-.08-.11-.1-.15h-.1l.06-.06c0-.07-.07-.15-.07-.25zm2.47 14.22c-.09.25-.4.34-.66.4a.15.15 0 00-.11 0c-.06 0-.11.06-.16.07s-.06 0-.09-.08h-.38a.36.36 0 01-.31-.11c0-.17-.23-.18-.24-.3a.28.28 0 010-.08.15.15 0 01-.16-.16 1.33 1.33 0 010-.2.21.21 0 000-.11c0-.15-.08-.31-.1-.47a.5.5 0 010-.26.19.19 0 01-.12-.15.21.21 0 01.19-.2c0-.23.24-.06.27-.36 0-.07 0-.09.1-.1a2.53 2.53 0 00.3 0c.12 0 .16-.1.24-.11s0 .07.28.06.5.07.57.18.26.22.4.36a1.7 1.7 0 000 .22.78.78 0 00.15.41c.02.34.25.8-.17.99zM7 59l-.36.08H6.6c-.15-.09-.34 0-.51-.07A1.75 1.75 0 015 58.39v-.06a.2.2 0 00-.1-.15.25.25 0 000-.15v-.14-.28a.36.36 0 000-.09c.06-.16 0-.36.1-.5a2.1 2.1 0 01.24-.58c0-.07.08-.09.11-.16.08 0 .12-.08.16-.16v-.08h.09v-.06h.13s.06-.07.11-.08 0 0 .08 0a.14.14 0 01.08-.1h.16a.16.16 0 00.08-.06.12.12 0 00.1 0s.08-.06.13-.08l.34-.07a.09.09 0 01.06 0h.12a.17.17 0 00.1-.06.18.18 0 00.16 0l.19-.07h.07a.13.13 0 01.07 0h.14a.12.12 0 00.09-.08.27.27 0 00.15 0 1.56 1.56 0 00.21-.08s.09.05.12 0l.13-.3h.07c.07 0 0-.06 0-.07h.13l.05-.06h.11c.03 0 0 0 0-.07h.15a.1.1 0 000-.06h.19c.07 0 .1-.07.16-.09a.15.15 0 01.12 0s0-.06.05-.06h.16l.05-.05a.17.17 0 00.12 0H10s.28 0 .31.06c.08 0 .17.12.3.08 0 .15.22 0 .29.14h.07c0 .15.2.25.31.35a.17.17 0 00.11.09c0 .17.21.31.26.49s.12.8-.09 1c0 .2-.21.36-.34.51a6 6 0 01-.85.49c-.55.15-.48-.38-.64-.57a.57.57 0 01.45-.32.71.71 0 00.53-.84.37.37 0 010-.11v-.17c-.08-.29-.41-.21-.55-.39a1.37 1.37 0 00-.36 0 1.45 1.45 0 00-.22.09l-.74.16-.33.11-.26.29-1.51.42-.25.1-.43.12a.73.73 0 00-.45.89 1.16 1.16 0 00.27.47c.16 0 .17.2.34.16.07.12.2 0 .28.09s0 0 .07 0h.22a.15.15 0 00.07-.05H7c.14 0 .3.15.34.28v.22A.37.37 0 017 59zm2.84 5.39a5.74 5.74 0 00-1.17.52.35.35 0 000 .45c.09.17.26.34.35.5l.06.12.39.62a.66.66 0 010 .76l-.26.16a.29.29 0 01-.39 0 .53.53 0 01-.18-.21l-.24-.46c-.14-.3-.24-.64-.4-.93a1.46 1.46 0 00-.27-.38h-.05v-.18c0-.05 0 0-.06 0h-.1v-.07a.06.06 0 000-.06L7.43 65v-.09-.12l.07-.06v-.11h.18v-.12h.06l.11-.12a.08.08 0 01.09 0 1.24 1.24 0 01.23-.17.39.39 0 01.32 0s.05 0 .07-.06.18 0 .25-.08a.2.2 0 00.08-.1l.58-.29a3.87 3.87 0 01.57-.24.83.83 0 01.18-.13l.21-.08 2-1.09a2.36 2.36 0 01.44-.34.66.66 0 01.29-.09l.06-.05h.09c.04 0 .25.33.41.37v.15a.39.39 0 01-.25.42l-.41.23-.47.27a.13.13 0 01-.14 0l-1.91 1a8 8 0 00-.66.31zm7.86 5.9a3.33 3.33 0 00-.25-.28c-.17-.22-.37-.53-.54-.77l-.08-.06-.09-.13a.18.18 0 00-.25-.07l-.14.09-.82.67a4.59 4.59 0 00-.41.36.37.37 0 00.08.26.79.79 0 00.27.21 1.19 1.19 0 01.15.18c.19.23.32.46.53.73h.1c0 .1.19.27.21.43s-.06.25-.16.33l-.14.12-.2.12c-.24-.06-.28-.27-.47-.32a1.88 1.88 0 00-.24-.36l-.44-.55a2.42 2.42 0 01-.29-.42.49.49 0 00-.28-.07c-.47.33-.87.64-1.34 1-.1.09-.08.2-.08.31.24.24.45.48.66.73s.58.77.87 1.15a.38.38 0 01-.14.39l-.1.06c-.15.06-.31.26-.49.14-.05 0-.13-.06-.16-.1a.08.08 0 010-.07.14.14 0 01-.11-.06l-.11-.24s-.06-.08-.09-.13l-.59-.61a1.62 1.62 0 01-.13-.19l-.07-.07c-.13-.16-.21-.38-.36-.57l-.08-.09c-.16-.06-.23-.27-.38-.33.11-.09 0-.28.07-.35a.1.1 0 01.07 0c.07-.06.07-.2.13-.25h.16a.88.88 0 00.12-.15s.12 0 .17-.07l.24-.26.2-.12.38-.32a1.65 1.65 0 00.37-.38l.37-.17a.23.23 0 01.07-.13l.16-.1a.17.17 0 00.06-.06 2 2 0 00.37-.24l.13-.11.18-.14.16-.14a1 1 0 01.27-.16c1-.78 1.14-1 1.25-1.07s.09 0 .12 0a.77.77 0 01.56.31.56.56 0 01.1.15s.13 0 .17.07a.35.35 0 00.09.17l.26.26a.46.46 0 01.09.2.07.07 0 01.1 0s0 .1.06.12a.11.11 0 000 .06s.07 0 .1.06l.39.54a1.75 1.75 0 00.37.35.59.59 0 010 .52.94.94 0 01-.57.22 1.73 1.73 0 01-.58-.53zm7.85 6.74l-.35.42a10.69 10.69 0 00-.69.82.2.2 0 00-.07.16l-1.26 1.66-.68.8-.49.79c-.22.29-.45.4-.72.24a.47.47 0 01-.14-.64 2.33 2.33 0 01.36-.35.86.86 0 01.1-.16l.3-.36.15-.22.4-.53a2.27 2.27 0 01.44-.48c.1-.25.36-.44.31-.7a1.09 1.09 0 00-.49.28l-.18.16c-.85.56-1.47 1.48-2.29 2.1a3.42 3.42 0 01-.66-.4c0-.11-.13-.19-.06-.29a.33.33 0 01.08-.24l.09-.12a.47.47 0 00.06-.09l1.52-3.3v-.08h-.13l-.23.32a1.1 1.1 0 00-.15.24L19.34 79l-.41.48c-.18.2-.39.13-.61.15h-.05v-.14a.11.11 0 01-.08 0s-.18-.25 0-.45l.07-.07c-.05-.12 0-.21.08-.31l.1-.13c.13 0 .11-.13.23-.11A2.5 2.5 0 0019 78a3.37 3.37 0 00.44-.84.2.2 0 010-.16c.06-.08.18-.13.25-.21l.08-.15.21-.23c.12-.15 0-.24.08-.3s.13 0 .19-.07-.18-.14-.1-.26a.06.06 0 01.08 0h.05a.16.16 0 00.1 0 .11.11 0 010-.15 1 1 0 01.11-.1h.09c.01 0 0-.21 0-.26s.07 0 .14 0-.11-.13-.05-.21.19.09.3 0-.12-.17-.08-.29c.06-.08.22-.11.27-.17s0-.08 0-.14.06-.06.1 0 0-.1 0-.12.16-.06.2-.13a.07.07 0 000-.08h.13s-.09-.12-.05-.17a.07.07 0 01.07 0 .32.32 0 00.06.07l.05-.15a.1.1 0 01.12 0V74a.18.18 0 01.19-.06.18.18 0 01.19 0 .9.9 0 01.21.3c.2.2.42.34.38.63s-.23.43-.09.6h-.12s0 .14-.06.2a11 11 0 01-1 2.07v.07c0 .3-.37.54-.29.83.17.12.28-.09.43-.16.54-.34.81-.92 1.39-1.21a.13.13 0 010-.08l.35-.23a.19.19 0 000-.09 2.7 2.7 0 00.7-.56c.17 0 .36-.47.85-.29a.12.12 0 000 .12l.14.06a.11.11 0 01.05.09l.1.06a.53.53 0 01.33.7zm7.48 4.32a1.74 1.74 0 01-.77-.18h-.06a2.17 2.17 0 00-.36-.12l-.84-.4a.2.2 0 01-.1 0l-.14-.06c-.1 0-.18 0-.25.06l-.08.15-.39 1c-.06.17-.13.33-.18.51a.39.39 0 00.21.19 1 1 0 00.33 0l.22.07c.28.11.51.24.82.38h.09c.06.08.3.14.4.27a.32.32 0 010 .37l-.07.17-.11.21c-.24 0-.38-.11-.57 0a1.8 1.8 0 00-.39-.2l-.65-.25a2.77 2.77 0 01-.46-.22.38.38 0 00-.28.07c-.24.52-.43 1-.65 1.55-.05.12 0 .21.08.31a7.8 7.8 0 01.93.31c.45.17.89.38 1.32.57a.35.35 0 01.07.4.3.3 0 010 .1c-.11.13-.15.38-.37.37h-.24a.15.15 0 01-.13 0l-.21-.16-.2-.21-.82-.24a.64.64 0 01-.2-.11h-.09c-.2-.08-.37-.23-.6-.32a.35.35 0 00-.11 0c-.17 0-.34-.12-.5-.1.05-.13-.15-.23-.1-.33s0 0 0-.06v-.27a.15.15 0 01.05-.06l.06-.08v-.19s.1-.08.12-.13a2.63 2.63 0 01.09-.3.72.72 0 01.12-.21c.05-.15.11-.31.17-.46a2.08 2.08 0 00.13-.52l.24-.32a.19.19 0 010-.15l.08-.16a.16.16 0 000-.09A1.81 1.81 0 0029 82l.07-.15a.78.78 0 01.09-.21l.07-.21a.66.66 0 01.16-.26c.43-1.16.49-1.42.55-1.56s.09 0 .11-.07a.75.75 0 01.64 0l.15.08h.18a.36.36 0 00.16.11l.36.09a.38.38 0 01.18.13.07.07 0 01.09 0s.08.06.11.07.08 0 .13 0c.2.09.4.21.61.29a1.66 1.66 0 00.49.11.66.66 0 01.25.46 1 1 0 01-.33.49zm8.47 2.45c0 .26-.1.53-.13.79a2.89 2.89 0 000 .29l-.28 2c0 .19-.06.38-.1.57V87.88l-.06.62a4.33 4.33 0 010 .53c-.05.36-.13.52-.37.49h-.12a.56.56 0 00-.13 0 .69.69 0 01-.31-.63 1.68 1.68 0 01-.17-.74c-.19 0 0-.28-.13-.31-.42-.89-.39-1.84-.75-2.7a.27.27 0 00-.22.27v.42c0 .12-.09.22-.11.35v.67a.53.53 0 01-.08.23c0 .59-.2 1.28-.13 1.81a.43.43 0 01-.55.35c-.21 0-.3-.19-.44-.21a.12.12 0 00.06-.08.63.63 0 000-.19v-.09l-.08-.07a.07.07 0 000-.06v-.08c0-.02.07-.11.08-.17V88a.3.3 0 01.05-.15.19.19 0 010-.08c0-.06 0-.13.06-.2a.13.13 0 000-.14.15.15 0 00.07-.11 1 1 0 000-.17.2.2 0 010-.09 2.67 2.67 0 000-.69.16.16 0 000-.09v-.22a.16.16 0 01.05-.09v-.3a.34.34 0 000-.2.44.44 0 00.08-.2 2.53 2.53 0 010-.27.25.25 0 010-.09.07.07 0 010-.08.84.84 0 000-.17l.05-.56v-.11a.21.21 0 00.1-.17V82.94c.06-.41.61-.57 1-.51a.32.32 0 01.15.06h.11a.15.15 0 00.1.13c.21.43.09.92.27 1.33 0 .37.08.74.1 1.09h-.07c0 .08.11.1.14.16v.18h-.06a.07.07 0 00-.07.06v.09l.09-.05.09.16c.11.18.16 1 .34 1s.24-.26.26-.38 0-.34 0-.52l.17-1.48a.27.27 0 010-.12v-.39a2.11 2.11 0 000-.66c.17-.35.45-.22.76-.27v.06h.12a.53.53 0 01.09.44c.09.11.01.31-.03.48zm9.24 4.31h-.05a.85.85 0 010 .09c0 .05-.08.05-.09.09s.06 0 .06.07a5.09 5.09 0 00-.16.65c-.17 0 0 .29-.19.34a.14.14 0 010 .06c0 .09-.18 0-.17.18a.15.15 0 00-.08 0c-.09 0-.2.17-.29.22a3.37 3.37 0 01-1 .27A2.67 2.67 0 0148 90c0-.13-.16 0-.22-.1h-.08c0-.25-.72-.36-.76-.94 0-.09-.12-.15-.12-.25v-.21a.26.26 0 000-.12.48.48 0 01.35-.33H47.48c.13 0 .22.08.35.11.28.2.22.53.36.79a1.22 1.22 0 00.7.25c.06-.08.19 0 .26-.11l.34-.3c0-.17.16-.31.15-.47a2.42 2.42 0 00-.42-.81 4.39 4.39 0 00-1.22-.77c-.39-.38-.92-.7-1.25-1.09a1.15 1.15 0 00-.29-.48.43.43 0 000-.16c0-.19-.1-.39-.11-.56a.34.34 0 01.06-.26v-.23s.05-.06.07-.09v-.14c.06 0 .18 0 .17-.08a.07.07 0 000-.06h.06v-.06c.13 0 .23-.2.34-.32s0 0 .06 0 .13-.12.22-.13l.16-.15v.08a.14.14 0 01.11-.06h.26a.19.19 0 00.14-.05h.1a.65.65 0 00.26-.08 3.16 3.16 0 01.65.1h.06a3.72 3.72 0 01.55.39c0 .13.18.15.19.26s.13.1.14.17c.19.11.14.21.21.38a.31.31 0 01.16.13c-.1.15 0 .33-.1.5s-.09.08-.08.15c0 .09-.23 0-.22.13a.08.08 0 00-.07 0s-.11.07-.17.09-.09-.06-.14 0-.26-.21-.32-.38l-.38-.7a1.55 1.55 0 00-.73-.16c-.66.05-.57.53-.74.81.2.76 1.15 1.06 1.7 1.47.05 0 .13.14.21.17.15 0 .23.24.4.24s.23.36.44.42a.74.74 0 00.29.35.77.77 0 000 .15c0 .17.15.31.16.51s.08 0 .08.06zm14-1.91a1.65 1.65 0 01-.2.07.1.1 0 00-.06.08h-.21l-.27-.13v-.08l-.14-.14a.17.17 0 00-.16-.11v-.1a.14.14 0 01-.12-.08v-.25c0-.08-.12 0-.14-.07a.14.14 0 000-.16c0-.06-.1-.12-.12-.17a.12.12 0 01-.08 0v-.2a.11.11 0 00-.08-.07.49.49 0 00-.06-.22l-.11-.2h-.08v-.08l-.04-.29a.07.07 0 00-.09 0 .16.16 0 000-.14l-.16-.17a.14.14 0 010-.14.74.74 0 01-.15-.21l-.07-.14a1 1 0 00-.09-.13V83a.64.64 0 000-.07l-.17-.33c-.05 0-.07 0-.08-.06v-.19a.12.12 0 00-.09-.06v-.09l-.22-.35a.44.44 0 010-.19.24.24 0 01-.06-.08l-.09-.26a.32.32 0 00-.08-.09.24.24 0 01-.12.1l-.27.12a1.53 1.53 0 01-.16.11h-.1a.42.42 0 01-.5 0s-.12 0-.16-.11 0-.16 0-.22a.12.12 0 000-.05 2.36 2.36 0 010-.36 2.1 2.1 0 01.62-.48 1.54 1.54 0 01.5-.16l.09-.07a1.55 1.55 0 01.31-.06l.8-.47a.06.06 0 00.06 0c.05 0 .07-.08.11-.1a.12.12 0 01.08 0 .17.17 0 01.08-.07c.06 0 .12 0 .2-.06h.07a.12.12 0 01.16 0l-.06.05c.13 0 .15.07.22.13s.08 0 .1 0c0 .09-.08.12-.09.2h.14a.18.18 0 01.07.08s.09.24 0 .27-.08 0-.15 0c0 .08-.08.18-.11.21s-.06.09 0 .1c-.12.07-.32.09-.46.16s-.26.28-.11.57l.41.63c0 .07 0 .14.05.19a.67.67 0 01.16.2l.7 1.38c.34.67.66 1.36 1 2.09a1 1 0 01-.42.59zm-1.21-6.06v0zm9.39 1.06l-.15.11a1.92 1.92 0 01-1.44.27c-.07-.09-.24 0-.34-.08a1.3 1.3 0 01-.57-.38v-.06l-.8-1-.18-.2-.09-.11-.25-.32-.63-.77a7.82 7.82 0 01-.76-1.08 1.24 1.24 0 010-.83 5.11 5.11 0 01.23-.61c.17-.15.33-.43.53-.6a.5.5 0 01.19-.1l.7-.22a1.83 1.83 0 011.6.7 1.6 1.6 0 01.18.25.36.36 0 00.07.1l.36.39a.67.67 0 01.12.19l.54.63v.08l.19.21a.28.28 0 01.09.16 1 1 0 01.19.17l.3.44.1.12c.23.29.22.61.37.93a1.85 1.85 0 01-.55 1.61zm6.94-6.68c-1 1.31-2.18.41-3-.25l-1.98-1.57c-.52-.41-1-.8-1.56-1.17a.4.4 0 01.1-.24l.2-.22.06-.09a.38.38 0 010-.1c.12-.14.31 0 .43.06l.38.33.24.15a2.06 2.06 0 00.3.29l.48.38.4.37c.15.12.34.22.49.33l.14.17 1 .81a4.8 4.8 0 00.52.36h.06a.78.78 0 001-.27.58.58 0 00.14-.42c.16-.2-.19-.54-.48-.77l-.73-.58-.32-.26c-.91-.7-1.91-1.5-2.87-2.22a.35.35 0 01.1-.27l.39-.41h.2c.42.4.85.76 1.29 1.12s.7.54 1.06.8a4 4 0 00.47.43l.31.25c1.32.98 2.01 1.93 1.18 2.99zm-2.7-3.12c.05 0 .07.1.05.12s0 0-.06 0-.01-.1.01-.12zm7.7-5.91zm.93-.63a2.92 2.92 0 00-.13.34c0 .11-.08.3-.08.3a.83.83 0 01-.35 0c-.09 0-.26-.13-.44-.07a14.13 14.13 0 00-1.39-.35l-1-.2h-.08a.38.38 0 000 .12l-.29.55-.09.25a.44.44 0 00.17.12l.28.11.09.06.22.11c.5.24 1 .41 1.47.63l.52.24a.52.52 0 010 .27.89.89 0 00-.09.16c0 .1-.08.18-.15.34a2.07 2.07 0 01-.51-.19l-.42-.23-.26-.1-.34-.16a2.26 2.26 0 00-.43-.17l-2.06-1-.8-.4a.14.14 0 01-.09 0l-.21-.16c-.34-.14-.7-.33-1-.46v-.1l.09-.17.07-.17.32-.67a3.8 3.8 0 01.46-.74h.07a2.13 2.13 0 011.23-.62 2 2 0 01.81.19 1.81 1.81 0 011 1c.06.16.11.3.24.36s0 0 .08 0c.43.07.83.15 1.21.23.6.13 1.18.25 1.83.36h.18s-.1.13-.13.22zm-3.53-1.14a.06.06 0 010-.06v.05s.01.02 0 .01zm.08.1a.09.09 0 010-.09zm.12.13h.07v.06h-.06a.05.05 0 01-.01-.01zm.13.06V64zm.26 0h-.06zm6-8a.62.62 0 01-.16.31 16.27 16.27 0 01-1.76.22c-.11.12-.21-.05-.43.08s-.41 0-.63 0c0 .22.27.18.32.37h.11a.77.77 0 01.46.39c.06 0 .12.07.19.08a.1.1 0 00.09 0 .38.38 0 00.13.06.53.53 0 00.33 0v.08c0 .08.33 0 .48 0a.33.33 0 01.26.19h.05c.11 0 0 .21.13.3a.4.4 0 000 .13 1.82 1.82 0 000 .38c-.15 0-.07.14-.22.14v.06a.85.85 0 01-.45 0h-.09a.28.28 0 01-.18 0l-.2-.06c-.34 0-.65-.14-1-.16-.06 0-.12-.09-.17-.12s-.11.06-.19 0l-.19-.08a.1.1 0 00-.11 0 .19.19 0 00-.14-.08h-.06l-.07.05-.07-.08h-.1l-.18.14a.23.23 0 01-.14 0l-.21-.07h-.15l-.28-.07a1 1 0 00-.3-.05l-1.65-.37h-.4a.38.38 0 01-.1 0 .49.49 0 01-.13 0h-.13s-.09-.1-.12-.14h-.09s.05-.06.05-.07-.08-.14-.09-.23v-.16a.57.57 0 01.28-.4v-.12a.68.68 0 01.4 0c.29.06.57.28.89.35h.16a.53.53 0 00.13 0 3.94 3.94 0 01.83.31h.23l.44.13s0-.06.06-.1 0 0 0-.05c-1-.68-1.94-1.4-2.87-2.16a1.25 1.25 0 010-.58.64.64 0 01.5-.54c.15.22.44.26.59.47h.12a.08.08 0 010 .06c0 .14.17.19.24.31s0 .08.1.09c0 .09.11.06.13.12.09 0 .1.15.18.19a7 7 0 01.61.46.17.17 0 01.12 0 .31.31 0 01.16.1c.06 0 .14-.1.19-.08s.06-.06.09-.08 0 0 .08 0 .18-.11.29-.09 0 0 .06 0c.16-.13.39 0 .51-.14h.2a.19.19 0 00.16 0h.17c.05 0 0 0 0 .06h.07c.54-.2 1 0 1.46-.24l.29-.09h.06c.06 0 .22.26.32.37v.11z" class="cls-3" transform="translate(-1.26 -1.46)"/>
  <path d="M85.06 65.41a.09.09 0 00.1 0 .09.09 0 00-.1 0zM85.62 64.87a.05.05 0 000 .07s.01-.1 0-.07zM85.35 64.71zM84.51 67.43zM85.55 64.83v0zM84.49 67.08h.12v.12c0 .01 0 0 0 0v-.12l-.19-.08h-.1c-.01 0 0 0 0 0zM79.4 65.43v.09s.02-.09 0-.09zM80.14 65.08s.01-.02 0 0zM80.89 63.46l-.18-.07c-.1 0-.2.06-.28 0a1.1 1.1 0 00-.81.54c0 .1-.14.23-.19.34a.43.43 0 000 .33.26.26 0 00.13.14.41.41 0 00.16 0l.44.27h.09l.43.22a1.24 1.24 0 00.61.18l.22-.46a1.06 1.06 0 00.13-.57 1.16 1.16 0 00-.75-.92zm-1.43 1.19v-.06c0-.06 0 0 0 0s.01.07 0 .06zM84.37 67.65zM84.43 55.76v.06c.06 0 .06 0 .08-.08s-.07 0-.08.02zM84.35 55.66v.05zM83 57v-.06zM82.7 57.66zM84 55.49a.08.08 0 000-.06v.06zM82.44 56.85s0-.01 0 0zM82.86 54.38v.07-.08zM85.7 64.75h-.23.25zM83.07 54.43zM83.79 55.25c-.05 0-.07 0-.08.1s0 .08.06.1 0-.07 0-.09a.11.11 0 00.02-.11zM83.88 55.38h.05zM5.26 56.43s0-.02 0 0zM16.36 68.09v.08h.09c.09 0 0 0 0 0s-.11-.06-.12-.05zM38.07 83.38a.11.11 0 00.08.06.78.78 0 000-.07zM38 83zM16.61 67.89a.11.11 0 00-.08 0h.08zM13.73 74.37h-.05a.06.06 0 000 .08.07.07 0 00.09 0l-.04-.08zM37.55 88.93l.08.06s-.04-.05-.08-.06zM37.25 88.41s.06.1.08.11 0-.07-.06-.08zM40.44 88.94zM8.5 66.69a.06.06 0 00.06 0zM14.82 69.31v.14s.07-.09 0-.12.01-.03 0-.02zM8.41 64.26s0-.02 0 0zM40 89.06V89v.06zM40.38 88.81h-.06zM40.35 89.29v.06s.02-.06 0-.06zM40 89.27zM38.14 83zM8 64.45v.06a.06.06 0 000-.06zM40 89.15a.08.08 0 00-.08 0H40zM7.89 64.52h.06-.06zM37.91 89h.05c.05 0 0 0 0 0h-.05zM19.63 77.56v.06h.07zM21.29 77zM21.43 75.35a.08.08 0 000-.07zM20.91 77.72a.06.06 0 000-.06zM18.75 78.65h.07a.08.08 0 000-.06s-.06.05-.07.06zM20.88 75.24h-.05.06a.07.07 0 00-.01 0zM20.9 76a.13.13 0 000 .1.06.06 0 000-.07zM20.81 77.87v.07zM21 75.75a.07.07 0 000 .09h.06a.06.06 0 00-.06-.09zM8.94 67.34H9h-.07zM30.07 79.61s0-.02 0 0zM29.92 79.91L30 80l.06-.08c.06-.08 0 0 0 0a.25.25 0 00-.14-.01zM29.24 81.73a.26.26 0 000 .14v-.13zM31.58 80h.07a.07.07 0 000-.07zM8.7 66.92c-.05 0 0 .1 0 .15s-.06-.07 0-.15zM30.81 86.74v-.06c0-.06-.05 0-.06 0a.06.06 0 000 .07.06.06 0 00.06-.01zM8.86 67.22s-.02.01 0 0zM19.26 78.12v-.07zM41 85.31s-.06.07-.07.12 0 .16 0 .17v.06c0 .06 0 0 0 0v-.06-.24zM41.35 83.2h-.05c-.05 0-.08 0-.1.14s0 .18 0 .18v.14s-.06 0-.06.07v.2h.07l.06-.17v-.14a.16.16 0 010-.07.6.6 0 000-.11.34.34 0 00-.05-.23zM41.2 84s-.06 0-.06.07v.09a.08.08 0 010 .08v.09a.09.09 0 000 .05.22.22 0 00-.05.12.65.65 0 000 .14s0 .07-.06.13a.1.1 0 000 .08v.19s-.06 0-.06.06.08-.06.09-.1 0-.21 0-.21v-.29c.07 0 .08 0 .09-.07v-.11a1.86 1.86 0 00.09-.28.09.09 0 00-.04-.04zM7.87 55.35v.06c0 .06 0 0 0 0v-.06zM50.13 84.53l-.07-.06s.04.06.07.06zM17.7 69v.07c0 .02.06 0 .07 0V69h-.07zM6.9 55.68v-.06s-.01.07 0 .06zM7.28 55.57s.07 0 .06-.08a.07.07 0 00-.12 0zM46.57 83.9v-.07c0-.01 0 0 0 0a.06.06 0 000 .07zM7.53 55.45v-.06zM50.36 87.61zM50.22 87.45zM47.66 88.28s0-.01 0 0zM8.32 55.24a.13.13 0 000-.09zM8.17 55.28h-.06c-.06 0 0 .05 0 .09s.06-.05.06-.09zM6.68 55.74v-.07c0-.07 0 0 0 0s-.07.06-.06.07 0 .01.06 0zM47.05 88.72h0zM47.29 88.12s.02 0 0 0zM47.55 88.16v.07h.06l-.06-.07zM40.67 87.28l.09.06v-.09zM40.69 87.74a.07.07 0 000-.09v.07a.3.3 0 000 .08s0 .08.05.1l-.05.05a.09.09 0 00.06.08c.06 0 .08-.07.1-.15v-.12h-.06c.01 0 0 0 0 0zM40.59 88.08h.07v-.06s-.06.06-.07.06zM9.43 55s0-.06-.06-.05zM40.68 87.38v.25-.1a.07.07 0 010-.07zM5.16 56.38s-.01-.02 0 0zM41.12 82.94s0 .06 0 0zM40.82 84.21zM6.94 58.25s.06 0 0 0zM5.48 56.3s-.05 0 0 0h.07c.01 0 0 0 0 0s-.07-.01-.07 0zM20.35 76.53v.11a.2.2 0 000-.13v.02zM41.32 83v-.06c0-.06-.06.09-.06.1s.05-.04.06-.04zM40.9 85.69v.06zM6.26 55.84zM6.44 55.84v-.12a.24.24 0 00-.13 0 .18.18 0 000 .05h.08s.04.05.05.07zM40.84 86v0zM40.72 86.71s0-.02 0 0zM40.9 86.28s0-.12-.06-.13a1.23 1.23 0 010 .19 1.37 1.37 0 000 .35 1.24 1.24 0 01.1-.29v-.1c0-.03-.06-.02-.04-.02zM6 55.93v.06c0 .06 0 0 0 0v-.06zM60.48 46.29a.62.62 0 00-.45-.23.47.47 0 00-.31.12 4 4 0 00-.46.62 4.53 4.53 0 01-.4.53 2.64 2.64 0 01-.85.57 5.16 5.16 0 01-1.24.23 6.32 6.32 0 00-1.61.3 6.17 6.17 0 00-2.28 1.46l-.37.4a3.15 3.15 0 01.77-1.36l.27-.2a3.32 3.32 0 00.32-.25.32.32 0 000-.47.57.57 0 00-.42-.14 2.37 2.37 0 00-1.57.75 3.12 3.12 0 00-.33.58 3.77 3.77 0 01-.3.56.2.2 0 01-.13.07c-.29-.3.49-1.8 1-2.33a4.16 4.16 0 011.68-1 2.3 2.3 0 01.84.31 4.41 4.41 0 001 .4h.34a2.53 2.53 0 001.67-.71 2.13 2.13 0 00.06-2.91 2.66 2.66 0 00-1.71-.83 2 2 0 00-1.47.63 5.36 5.36 0 00-.58.9 6.77 6.77 0 01-.59.93 3.92 3.92 0 01-.81.54 5.38 5.38 0 00-.75.48c-.21.17-.45.37-.68.59a4.73 4.73 0 00-.7.86 5.05 5.05 0 00-.22.65c-.08.23-.19.61-.26.85-.14-.46-.38-1.37-.56-2.08s-.43-1.67-.55-2c-.91-2.94-1.07-3.47.93-5.41a1.82 1.82 0 011.24-.56 2.18 2.18 0 011.54.74 1.76 1.76 0 010 2.46 1 1 0 01-.68.32.63.63 0 01-.46-.2l-.18.17.19-.27a1.51 1.51 0 01.31-.2 1.56 1.56 0 00.3-.2.86.86 0 00.09-1.3 1.4 1.4 0 00-1-.37 1.7 1.7 0 00-1.17.42 1.52 1.52 0 00-.48 1.07 2.1 2.1 0 00.68 1.48 2 2 0 001.46.66 3.28 3.28 0 002.09-1c.95-.92.77-2.82-.37-4a3.14 3.14 0 00-2.28-1 3.2 3.2 0 00-2.17.89 10.11 10.11 0 00-1.83 2.69 4.52 4.52 0 01.58-2.64c.07-.07.29-.24.52-.43s.52-.42.61-.51c.81-.78 1.14-1.3 1.15-1.8a1.35 1.35 0 00-.44-1 .62.62 0 00-.45-.2.91.91 0 00-.61.29 6.79 6.79 0 00-.72 1.12c-.24.39-.52.87-.67 1.05a6.8 6.8 0 01.67-2.91 1.41 1.41 0 00-.31-1.47 1.07 1.07 0 00-.78-.29 1.09 1.09 0 00-.75.27 1.4 1.4 0 00-.28 1.51 5.65 5.65 0 01.63 2.89l-.19-.2c-.07-.07-.29-.4-.47-.67a9 9 0 00-.58-.81 1.71 1.71 0 00-1.08-.53.71.71 0 00-.51.2c-.36.35-.63.93.11 1.7a23.45 23.45 0 001.92 1.42l.33.23a5.07 5.07 0 01.12 2.64c-.15-.16-.32-.39-.49-.61a7.73 7.73 0 00-.51-.62 4.74 4.74 0 00-3.13-1.69 3.18 3.18 0 00-2.21 1 2.74 2.74 0 00-.91 2 3 3 0 00.76 2.05 3.45 3.45 0 002.22.83 2 2 0 001.43-.56 1.58 1.58 0 00.18-2.44 1.63 1.63 0 00-1.18-.53 1.28 1.28 0 00-.9.36 1.33 1.33 0 00-.24 1.21 1.6 1.6 0 00.14.35s.07.14.1.14a.36.36 0 01-.26.1 1 1 0 01-.62-.28 1.44 1.44 0 010-2.16 2.28 2.28 0 011.62-.66 2.52 2.52 0 011.78.76c.92.95 1 2 .39 3.5a20.5 20.5 0 00-.8 2.69l-.09.6c-.08.53-.23 1.51-.34 2.17a5 5 0 00-1.41-2.41 11.9 11.9 0 00-.94-.75c-.38-.29-.81-.62-.93-.74a1.8 1.8 0 01-.18-.25 1.31 1.31 0 01-.08-.33 2.48 2.48 0 00-.24-.82 3.08 3.08 0 00-.49-.65 2.1 2.1 0 00-3.21-.11 1.93 1.93 0 00.05 2.7 3 3 0 002 1h.3a8.6 8.6 0 011.21-.21 2.38 2.38 0 011.88 1c.72.74 1.29 1.72 1.17 2.2a4 4 0 00-.84-1.33s-1.31-1.27-1.89-1.27a.39.39 0 00-.29.11.36.36 0 00-.13.25.37.37 0 00.1.31l.34.32c.31.29.75.71 1 1a4.52 4.52 0 01.8 1.12c-.14-.12-.37-.35-.64-.64a4.41 4.41 0 00-1.5-1 5.89 5.89 0 00-1.65-.42 8.37 8.37 0 01-1.36-.27 3.37 3.37 0 01-1.54-.82 1 1 0 01-.22-.28 3.2 3.2 0 01-.13-.38 1.88 1.88 0 00-.3-.71.45.45 0 00-.35-.16.63.63 0 00-.44.21 2 2 0 00-.46 1.28 3.29 3.29 0 001 2.61 5.79 5.79 0 001.45 1.12 19.28 19.28 0 014.31 2.7 17.72 17.72 0 013.25 4.92l.41.84c.43.88.43.88.47.91a.5.5 0 00.39.17h.25a8.17 8.17 0 012.54-.68 3.41 3.41 0 011.91.7.68.68 0 00.36.13.48.48 0 00.31-.13 6.64 6.64 0 00.62-1.13c.14-.3.28-.57.34-.68a41.77 41.77 0 014.31-5.38 8.83 8.83 0 012.84-1.81l.34-.14a6.43 6.43 0 002.34-1.5 3.63 3.63 0 001-2 2.17 2.17 0 00-.33-1.85m-4.94-2.42a1.09 1.09 0 011.49.2 1.33 1.33 0 01.08 1.77c-.22.22-.7.46-1.27-.13s-.76-1.46-.3-1.84m-18.46 1.7a.82.82 0 01-1.23 0 1.05 1.05 0 01.19-1.53.94.94 0 011.32-.17c.65.58-.07 1.49-.28 1.69m5 10.3c-.06-.07-.57-1.24-.68-1.47a.31.31 0 010-.38c.05 0 3.12-2.11 3.67-1.54a5.49 5.49 0 01.73 2s-.68.32-.77.22a7.41 7.41 0 00-.51-1.32c-.2-.21-1.64.53-1.72.61s.46 1.37.3 1.53-.93.47-1.06.34m.44 1.22a.31.31 0 010-.49c.51-.49 2.87-1.6 3.4-1.06a.31.31 0 010 .35c-.16.22-1.46.34-1.69.42s-1.61.92-1.75.78m3.65 1.47s-2 1.3-2.28 1c-.09-.1-.86-1.24-.48-1.61a.82.82 0 011.07.14 1.82 1.82 0 00.23.3.49.49 0 00.79 0c.16-.15.13-.25-.13-1a.32.32 0 01.06-.36c.06-.06.55-.26.72-.08a2.38 2.38 0 010 1.58m2.72.59a1.41 1.41 0 01-1.64-.13 1.6 1.6 0 01-.35-1.57 1.24 1.24 0 01.74 0 .39.39 0 01.07.23 3.5 3.5 0 000 1 .63.63 0 00.65 0c.11-.11.15-.86.25-1 .37-.36.76-.34.9-.19s-.07 1.14-.55 1.61M50.51 57a15.56 15.56 0 01-3.4-.77.31.31 0 010-.43.32.32 0 01.23-.08 6.25 6.25 0 013.29.87c.13.15 0 .36-.07.41m.82-1.38s-.09 0-.65-.17a2.64 2.64 0 01-.64-.25c0-.05.12-.51.15-.6.15-.43.16-.51 0-.68s-1.37-.56-1.65-.28a.77.77 0 00-.25.42c-.05.1-.1.65-.12.67a1 1 0 01-.58-.06c-.06-.06-.27-1.59.06-1.91.65-.62 4.17.89 4.28 1 .52.54-.17 1.46-.59 1.86m7.48-6a2.49 2.49 0 01-.47.35 12.25 12.25 0 01-2.6.82 6.4 6.4 0 00-1.67 1.12c-.26.25-.56.57-.78.79a.76.76 0 01-.72.19c-.81-.26-3.36-1.05-3.9-1.14a.6.6 0 01-.33-.18.92.92 0 01-.26-.55 16.39 16.39 0 00-1.62-5c-.12-.12-.26-.18-.39 0-.48.46-1.21 5.43-1.4 5.61s-2.9 1.37-3.39 1.67-.46.16-1.2-.6a5.73 5.73 0 00-2.47-1.82c-.68-.24-1.06-.12-2.06-.36a4.27 4.27 0 01-1.78-1.16c-.33-.35-.9-1.5-.61-1.78a.15.15 0 01.21 0s.6.88.74 1a3.42 3.42 0 002.29.94 5.37 5.37 0 013.67 1.73c.13.13.51.75.6.84s.33.18.61 0 2.38-1.22 2.39-1.23a20.86 20.86 0 00.27-2.79 10.68 10.68 0 012-5.45c.18-.17.36-.14.58.09a24.39 24.39 0 012.18 5.64c.09.38.46 2.3.55 2.4s2.46.78 2.89 1c.21.12.31.14.5 0a7.58 7.58 0 013.36-2.25 9.48 9.48 0 002.22-.51 3.63 3.63 0 00.94-.66c.32-.31.46-.45.54-.37.26.28-.59 1.35-.95 1.7" class="cls-3" transform="translate(-1.26 -1.46)"/>
</svg>

